<?xml version="1.0" encoding="UTF-8"?>
<svg version="1.1" xmlns="http://www.w3.org/2000/svg" width="64" height="64">
<path d="M0 0 C0.70415039 0.00088623 1.40830078 0.00177246 2.13378906 0.00268555 C9.65700455 0.17335269 15.51192955 2.43972135 21.1875 7.375 C20.49569281 13.11933162 19.22402939 18.59650221 17.75 24.1875 C17.53279297 25.04537109 17.31558594 25.90324219 17.09179688 26.78710938 C16.87716797 27.60630859 16.66253906 28.42550781 16.44140625 29.26953125 C16.24877197 30.01050049 16.0561377 30.75146973 15.85766602 31.51489258 C15.1875 33.375 15.1875 33.375 13.1875 35.375 C12.34892312 32.77241676 11.51646656 30.16814353 10.6875 27.5625 C10.44902344 26.82451172 10.21054687 26.08652344 9.96484375 25.32617188 C8.98809864 22.24244804 8.1875 19.63004191 8.1875 16.375 C5.5475 16.375 2.9075 16.375 0.1875 16.375 C0.084375 17.303125 -0.01875 18.23125 -0.125 19.1875 C-0.86434735 24.33124516 -2.04496363 29.48678936 -3.8125 34.375 C-4.8025 34.87 -4.8025 34.87 -5.8125 35.375 C-6.48536212 32.95990559 -7.15096012 30.54319644 -7.8125 28.125 C-8.00328125 27.44308594 -8.1940625 26.76117187 -8.390625 26.05859375 C-9.31207044 22.66899088 -9.8125 19.91721024 -9.8125 16.375 C-12.7825 16.375 -15.7525 16.375 -18.8125 16.375 C-18.40354492 17.80549683 -18.40354492 17.80549683 -17.98632812 19.26489258 C-16.97601241 22.80283277 -15.97086985 26.34222522 -14.96728516 29.88208008 C-14.53217316 31.41405718 -14.09565853 32.94563663 -13.65771484 34.47680664 C-13.02853275 36.67751724 -12.4044058 38.87960776 -11.78125 41.08203125 C-11.58438599 41.76650833 -11.38752197 42.45098541 -11.18469238 43.15620422 C-10.38434808 46.00086638 -9.8125 48.40279076 -9.8125 51.375 C-6.8425 51.375 -3.8725 51.375 -0.8125 51.375 C-0.709375 50.116875 -0.60625 48.85875 -0.5 47.5625 C0.10340491 41.9898782 1.59440933 36.73539942 3.1875 31.375 C5.1875 32.375 5.1875 32.375 5.78173828 34.14086914 C6.01739502 35.26416626 6.01739502 35.26416626 6.2578125 36.41015625 C6.43183594 37.21904297 6.60585938 38.02792969 6.78515625 38.86132812 C6.95917969 39.71146484 7.13320313 40.56160156 7.3125 41.4375 C7.49425781 42.29150391 7.67601562 43.14550781 7.86328125 44.02539062 C8.31226342 46.14033296 8.75085351 48.25747647 9.1875 50.375 C12.1575 50.375 15.1275 50.375 18.1875 50.375 C18.27902344 49.3334375 18.37054688 48.291875 18.46484375 47.21875 C19.24767793 40.95607656 21.06615032 34.94352756 22.75 28.875 C23.07935547 27.67101562 23.40871094 26.46703125 23.74804688 25.2265625 C24.55630594 22.27465982 25.36957746 19.32423686 26.1875 16.375 C27.1775 16.375 28.1675 16.375 29.1875 16.375 C33.25213496 24.50426991 33.63081084 34.31824915 31.53125 43.12890625 C28.315269 51.09954882 21.7594661 58.29657149 14.1875 62.375 C6.27674446 65.59370283 -4.80196063 66.06983974 -12.8125 62.8125 C-20.67865361 58.54916484 -27.52608331 51.99443256 -30.921875 43.6484375 C-33.15262235 35.44946258 -33.24621378 24.90322543 -29.140625 17.328125 C-21.79161908 6.52076335 -13.4656916 -0.03044361 0 0 Z " fill="#40729D" transform="translate(31.8125,-0.375)"/>
</svg>
